<svg width="24" height="63" viewBox="0 0 24 63" fill="none" xmlns="http://www.w3.org/2000/svg">
<path d="M10.5 61C10.5 61.8284 11.1716 62.5 12 62.5C12.8284 62.5 13.5 61.8284 13.5 61L10.5 61ZM13.0607 0.939343C12.4749 0.353558 11.5251 0.353558 10.9393 0.939342L1.3934 10.4853C0.807614 11.0711 0.807614 12.0208 1.3934 12.6066C1.97919 13.1924 2.92893 13.1924 3.51472 12.6066L12 4.12132L20.4853 12.6066C21.0711 13.1924 22.0208 13.1924 22.6066 12.6066C23.1924 12.0208 23.1924 11.0711 22.6066 10.4853L13.0607 0.939343ZM13.5 61L13.5 58.8929L10.5 58.8929L10.5 61L13.5 61ZM13.5 54.6786L13.5 50.4643L10.5 50.4643L10.5 54.6786L13.5 54.6786ZM13.5 46.25L13.5 42.0357L10.5 42.0357L10.5 46.25L13.5 46.25ZM13.5 37.8214L13.5 33.6071L10.5 33.6071L10.5 37.8214L13.5 37.8214ZM13.5 29.3929L13.5 25.1786L10.5 25.1786L10.5 29.3929L13.5 29.3929ZM13.5 20.9643L13.5 16.75L10.5 16.75L10.5 20.9643L13.5 20.9643ZM13.5 12.5357L13.5 8.32143L10.5 8.32143L10.5 12.5357L13.5 12.5357ZM13.5 4.10714L13.5 2L10.5 2L10.5 4.10714L13.5 4.10714ZM10.5 61C10.5 61.8284 11.1716 62.5 12 62.5C12.8284 62.5 13.5 61.8284 13.5 61L10.5 61ZM13.0607 0.939343C12.4749 0.353558 11.5251 0.353558 10.9393 0.939342L1.3934 10.4853C0.807614 11.0711 0.807614 12.0208 1.3934 12.6066C1.97919 13.1924 2.92893 13.1924 3.51472 12.6066L12 4.12132L20.4853 12.6066C21.0711 13.1924 22.0208 13.1924 22.6066 12.6066C23.1924 12.0208 23.1924 11.0711 22.6066 10.4853L13.0607 0.939343ZM13.5 61L13.5 58.8929L10.5 58.8929L10.5 61L13.5 61ZM13.5 54.6786L13.5 50.4643L10.5 50.4643L10.5 54.6786L13.5 54.6786ZM13.5 46.25L13.5 42.0357L10.5 42.0357L10.5 46.25L13.5 46.25ZM13.5 37.8214L13.5 33.6071L10.5 33.6071L10.5 37.8214L13.5 37.8214ZM13.5 29.3929L13.5 25.1786L10.5 25.1786L10.5 29.3929L13.5 29.3929ZM13.5 20.9643L13.5 16.75L10.5 16.75L10.5 20.9643L13.5 20.9643ZM13.5 12.5357L13.5 8.32143L10.5 8.32143L10.5 12.5357L13.5 12.5357ZM13.5 4.10714L13.5 2L10.5 2L10.5 4.10714L13.5 4.10714Z" fill="black"/>
</svg>
